<svg data-v-0dd9719b="" version="1.0" xmlns="http://www.w3.org/2000/svg" xmlns:xlink="http://www.w3.org/1999/xlink" width="100%" height="100%" viewBox="0 0 340.000000 250.000000" preserveAspectRatio="xMidYMid meet" color-interpolation-filters="sRGB" style="margin: auto;"> <rect data-v-0dd9719b="" x="0" y="0" width="100%" height="100%" fill="#feffff" fill-opacity="1" class="background"></rect> <rect data-v-0dd9719b="" x="0" y="0" width="100%" height="100%" fill="url(#watermark)" fill-opacity="1" class="watermarklayer"></rect> <g data-v-0dd9719b="" fill="#000000" class="icon-text-wrapper icon-svg-group iconsvg" transform="translate(59.17936706542969,94.20936965942383)"><g fill="#E06666" class="iconsvg-imagesvg icon_container" transform="translate(0,0)" mask="url(#420126f1-fd55-464f-a0dd-f9ce76ff0399)"><rect fill="#000000" fill-opacity="0" stroke-width="2" x="0" y="0" width="61.581259150805266" height="61.581259150805266" class="image-rect"></rect> <svg viewBox="0 0 60 60" x="0" y="0" width="61.581259150805266" height="61.581259150805266" class="image-svg-svg bn" style="overflow: visible;"><g hollow-target="iconBnFill" mask="url(#e4899dfd-673c-4ab5-bf1e-9cba1e0ff2d6)"><g><svg fill="#000000" xmlns="http://www.w3.org/2000/svg" xmlns:xlink="http://www.w3.org/1999/xlink" xmlns:sketch="http://www.bohemiancoding.com/sketch/ns" viewBox="0 0 60 60" version="1.1" x="0" y="0" style="overflow: visible;" width="60" height="60" filtersec="colorsf5816786002" filter="url(#8ePiQdFgpJewSdM5dFvl6)"><g transform="scale(1, 1) skewX(0)"><title>96 - Rounded (Solid)</title><desc>Created with Sketch.</desc><g fill-rule="evenodd"><g fill="#000000"><path d="M49.001,0 L10.999,0 C4.934,0 0,4.934 0,10.999 L0,49.001 C0,55.066 4.934,60 10.999,60 L49.001,60 C55.065,60 60,55.066 60,49.001 L60,10.999 C60,4.934 55.065,0 49.001,0"></path></g></g></g><defs><filter id="8ePiQdFgpJewSdM5dFvl6"><feColorMatrix type="matrix" values="0 0 0 0 0.875  0 0 0 0 0.3984375  0 0 0 0 0.3984375  0 0 0 1 0"></feColorMatrix></filter></defs></svg></g> <g filter="url(#colors6450583076)"><svg xmlns="http://www.w3.org/2000/svg" xmlns:xlink="http://www.w3.org/1999/xlink" viewBox="0 0 53.96869565217391 64.80000000000001" width="50" height="50" x="5" y="5" class="image-svg-letter"><path transform="translate(-6.010434782608696 64.80000000000001)" d="M52.78-36L52.78-64.80L59.98-64.80L59.98 0L52.78 0L52.78-28.80L18.91-28.80L14.71-36L52.78-36ZM6.01 0L6.01-64.80L13.21-64.80L13.21 0L6.01 0Z"></path></svg></g></g><mask id="e4899dfd-673c-4ab5-bf1e-9cba1e0ff2d6"><g fill="white"><svg xmlns="http://www.w3.org/2000/svg" xmlns:xlink="http://www.w3.org/1999/xlink" xmlns:sketch="http://www.bohemiancoding.com/sketch/ns" viewBox="0 0 60 60" version="1.1" x="0" y="0" style="overflow: visible;" width="60" height="60" filtersec="colorsf5816786002"><g transform="scale(1, 1) skewX(0)"><title>96 - Rounded (Solid)</title><desc>Created with Sketch.</desc><g fill-rule="evenodd"><g><path d="M49.001,0 L10.999,0 C4.934,0 0,4.934 0,10.999 L0,49.001 C0,55.066 4.934,60 10.999,60 L49.001,60 C55.065,60 60,55.066 60,49.001 L60,10.999 C60,4.934 55.065,0 49.001,0"></path></g></g></g><defs></defs></svg></g> <g fill="black"><svg xmlns="http://www.w3.org/2000/svg" xmlns:xlink="http://www.w3.org/1999/xlink" viewBox="0 0 53.96869565217391 64.80000000000001" width="50" height="50" x="5" y="5" class="image-svg-letter"><path transform="translate(-6.010434782608696 64.80000000000001)" d="M52.78-36L52.78-64.80L59.98-64.80L59.98 0L52.78 0L52.78-28.80L18.91-28.80L14.71-36L52.78-36ZM6.01 0L6.01-64.80L13.21-64.80L13.21 0L6.01 0Z"></path></svg></g></mask></svg> <defs><filter id="colors6450583076"><feColorMatrix type="matrix" values="0 0 0 0 0.875  0 0 0 0 0.3984375  0 0 0 0 0.3984375  0 0 0 1 0" class="icon-fecolormatrix"></feColorMatrix></filter> <filter id="colorsf5816786002"><feColorMatrix type="matrix" values="0 0 0 0 0.99609375  0 0 0 0 0.99609375  0 0 0 0 0.99609375  0 0 0 1 0" class="icon-fecolormatrix"></feColorMatrix></filter> <filter id="colorsb983405303"><feColorMatrix type="matrix" values="0 0 0 0 0  0 0 0 0 0  0 0 0 0 0  0 0 0 1 0" class="icon-fecolormatrix"></feColorMatrix></filter></defs><rect v-gra="id" width="73.58126068115234" height="73.58126068115234" transform="translate(-6, -6)" style="pointer-events:none;" fill="url(#2j_eo7mM6oLZ15BlUshwq)"></rect></g> <g transform="translate(69.58126068115234,6.299381256103516)"><g data-gra="path-name" fill-rule="" class="tp-name iconsvg-namesvg" transform="translate(0,0)"><g transform="scale(1)"><g><path d="M11.3-32.8L11.3-36 29.98-36 34.02-36 36-36 36-32.8 34.02-32.8 34.02-4.59Q34.02-2.02 32.73 0L32.73 0 28.63 0Q29.98-2.05 29.98-4.59L29.98-4.59 29.98-32.8 11.3-32.8ZM5.32-12.7L9.32-12.7 9.32-4.56Q9.32-1.98 8.03 0.03L8.03 0.03 3.97 0.03Q5.32-2.02 5.32-4.56L5.32-4.56 5.32-12.7ZM9.32-31.37L9.32-26.33 5.32-26.33 5.32-31.37Q5.32-33.88 3.97-35.97L3.97-35.97 8.03-35.97Q9.32-33.95 9.32-31.37L9.32-31.37ZM9.32-19.72L9.32-14.68 5.32-14.68 5.32-19.72Q5.32-22.26 3.97-24.31L3.97-24.31 8.03-24.31Q9.32-22.3 9.32-19.72L9.32-19.72ZM27.97-29.6L27.97-26.4 27.97-7.03 26.09-7.03 23.97-7.03 18.09-7.03Q16.1-7.03 14.7-8.43 13.29-9.84 13.29-11.83L13.29-11.83 13.29-29.6 15.17-29.6 17.29-29.6 23.97-29.6 27.97-29.6ZM17.29-10.23L23.97-10.23 23.97-26.4 17.29-26.4 17.29-10.23ZM44-22.4L44-25.6 48-25.6 58.02-25.6 58.02-29.6 44-29.6 44-32.8 58.02-32.8 58.02-36 62.02-36 62.02-32.8 76-32.8 76-29.6 62.02-29.6 62.02-25.6 76-25.6 76-23.62 76-22.4 76-4.59Q76-3.93 75.88-3.18 75.76-2.43 75.46-1.58 75.17-0.73 74.75 0L74.75 0 70.64 0Q72-2.02 72-4.59L72-4.59 72-22.4 48-22.4 48 0 44 0 44-22.4ZM54.61-20.38L56.49-17.22 56.45-17.22 57.98-17.22 61.98-17.22 63.51-17.22 65.36-20.38 69.98-20.38 68.14-17.22 69.98-17.22 69.98-14.02 61.98-14.02 61.98-10.82 69.98-10.82 69.98-7.62 61.98-7.62 61.98 0 57.98 0 57.98-7.62 49.98-7.62 49.98-10.82 57.98-10.82 57.98-14.02 49.98-14.02 49.98-17.22 51.86-17.22 49.98-20.38 54.61-20.38ZM84-29.6L84-32.8 92.73-32.8 93.6-36 97.67-36 96.8-32.8 116-32.8 116-29.6 95.97-29.6 88.07 0 84 0 91.9-29.6 84-29.6ZM93.15-17.01L98.4-17.01 103.03-12.52 112-21.15 112-23.2 97.11-23.2 97.11-26.4 112-26.4 116-26.4 116-23.2 116-20 105.7-9.95 116 0 110.57 0 103.03-7.34 95.51 0 90.05 0 100.38-9.95 93.15-17.01ZM125.36-36L125.98-36 129.36-36 156-36 156-32.8 129.36-32.8 129.36-23.2 156-23.2 156-20 135.37-20 135.37-4.59Q135.37-2.05 136.73 0L136.73 0 132.63 0Q131.37-2.12 131.37-4.59L131.37-4.59 131.37-20 129.36-20 129.36-4.59Q129.36-2.02 128.07 0L128.07 0 124 0Q125.36-2.05 125.36-4.59L125.36-4.59 125.36-36ZM146.78-14.82L146.75-14.82 156 0 151.23 0 141.98-14.82 141.98-18.02 156.03-18.02 156.03-14.82 146.78-14.82ZM131.41-26.4L131.41-29.6 156.03-29.6 156.03-26.4 131.41-26.4Z" transform="translate(-3.9700000286102295, 36)"></path></g> <!----> <!----> <!----> <!----> <!----> <!----> <!----></g></g> <g data-gra="path-slogan" fill-rule="" class="tp-slogan iconsvg-slogansvg" fill="#000000" transform="translate(5,46.029998779296875)"><rect x="0" height="1" y="3.9750003814697266" width="16.46500015258789"></rect> <rect height="1" y="3.9750003814697266" width="16.46500015258789" x="125.59499740600586"></rect> <g transform="translate(19.46500015258789,0)"><g transform="scale(1)"><path d="M2.06-5.06L6.56-5.06L6.56-8.58L7.73-8.58L7.73 0L6.56 0L6.56-3.98L2.06-3.98L2.06 0L0.89 0L0.89-8.58L2.06-8.58L2.06-5.06ZM10.83-1.03L15.98-1.03L15.98 0L9.66 0L9.66-8.58L15.89-8.58L15.89-7.59L10.83-7.59L10.83-4.92L15.52-4.92L15.52-3.89L10.83-3.89L10.83-1.03ZM18.89-8.58L23.20-1.64L23.20-8.58L24.33-8.58L24.33 0L23.02 0L18.66-6.94L18.61-6.94L18.61 0L17.48 0L17.48-8.58L18.89-8.58ZM31.78 0L30.94-2.48L27.47-2.48L26.58 0L25.41 0L28.64-8.58L29.95-8.58L33.05 0L31.78 0ZM29.20-7.31L27.84-3.52L30.52-3.52L29.25-7.31L29.20-7.31ZM35.48-8.58L39.80-1.64L39.80-8.58L40.92-8.58L40.92 0L39.61 0L35.25-6.94L35.20-6.94L35.20 0L34.08 0L34.08-8.58L35.48-8.58ZM52.97-8.58L49.73-3.47L49.73 0L48.56 0L48.56-3.47L45.33-8.58L46.69-8.58L49.13-4.45L51.61-8.58L52.97-8.58ZM60.80-4.27L60.80-4.27Q60.61-7.64 57.80-7.83L57.80-7.83Q54.94-7.69 54.80-4.27L54.80-4.27Q54.94-0.94 57.80-0.80L57.80-0.80Q60.61-0.98 60.80-4.27ZM61.97-4.27L61.97-4.27Q61.69 0 57.80 0.14L57.80 0.14Q53.86 0 53.58-4.27L53.58-4.27Q53.81-8.72 57.80-8.81L57.80-8.81Q61.69-8.67 61.97-4.27ZM69-3.19L69-8.58L70.17-8.58L70.17-3.05Q70.03 0.05 66.66 0.14L66.66 0.14Q63.52 0.05 63.38-2.86L63.38-2.86L63.38-8.58L64.55-8.58L64.55-3.19Q64.59-0.84 66.70-0.80L66.70-0.80Q69-0.84 69-3.19L69-3.19ZM79.13-6.05L79.13-6.05L78-6.05Q77.58-7.78 75.61-7.83L75.61-7.83Q72.89-7.69 72.80-4.36L72.80-4.36Q72.80-0.80 75.66-0.80L75.66-0.80Q77.63-0.84 78.09-3.19L78.09-3.19L79.22-3.19Q78.70 0.05 75.42 0.14L75.42 0.14Q71.67 0 71.58-4.31L71.58-4.31Q71.77-8.63 75.61-8.81L75.61-8.81Q78.66-8.72 79.13-6.05ZM81.75-5.06L86.25-5.06L86.25-8.58L87.42-8.58L87.42 0L86.25 0L86.25-3.98L81.75-3.98L81.75 0L80.58 0L80.58-8.58L81.75-8.58L81.75-5.06ZM90.52-1.03L95.67-1.03L95.67 0L89.34 0L89.34-8.58L95.58-8.58L95.58-7.59L90.52-7.59L90.52-4.92L95.20-4.92L95.20-3.89L90.52-3.89L90.52-1.03ZM98.58-8.58L102.89-1.64L102.89-8.58L104.02-8.58L104.02 0L102.70 0L98.34-6.94L98.30-6.94L98.30 0L97.17 0L97.17-8.58L98.58-8.58Z" transform="translate(-0.890625, 8.8125)"></path></g></g></g></g></g><defs v-gra="od"></defs><defs v-gra="id"><filter id="9897d2fb-8fe0-44d4-a791-f7f58f80bd41" filterUnits="userSpaceOnUse"><feColorMatrix type="matrix" values="0 0 0 0 0.99609375  0 0 0 0 0.99609375  0 0 0 0 0.99609375  0 0 0 1 0"></feColorMatrix></filter><linearGradient x1="0" y1="1" x2="0" y2="0" id="2j_eo7mM6oLZ15BlUshwq"><stop offset="0%" stop-color="#ff51f9"></stop><stop offset="50%" stop-color="#a348ff"></stop><stop offset="100%" stop-color="#3978ff"></stop></linearGradient><filter id="42443b3f1de60f6b6fd3b6a9844b4764" filterUnits="objectBoundingBox"><feColorMatrix type="matrix" values="0 0 0 0 0.99609375  0 0 0 0 0.99609375  0 0 0 0 0.99609375  0 0 0 1 0"></feColorMatrix></filter></defs><mask v-gra="im" id="420126f1-fd55-464f-a0dd-f9ce76ff0399"><g fill="#E06666" class="iconsvg-imagesvg icon_container" filter="url(#9897d2fb-8fe0-44d4-a791-f7f58f80bd41)"><rect fill="#000000" fill-opacity="0" stroke-width="2" x="0" y="0" width="61.581259150805266" height="61.581259150805266" class="image-rect"></rect> <svg viewBox="0 0 60 60" x="0" y="0" width="61.581259150805266" height="61.581259150805266" class="image-svg-svg bn" style="overflow: visible;"><g hollow-target="iconBnFill" mask="url(#e4899dfd-673c-4ab5-bf1e-9cba1e0ff2d6)"><g><svg fill="#000000" xmlns="http://www.w3.org/2000/svg" xmlns:xlink="http://www.w3.org/1999/xlink" xmlns:sketch="http://www.bohemiancoding.com/sketch/ns" viewBox="0 0 60 60" version="1.1" x="0" y="0" style="overflow: visible;" width="60" height="60" filtersec="colorsf5816786002"><g transform="scale(1, 1) skewX(0)"><title>96 - Rounded (Solid)</title><desc>Created with Sketch.</desc><g fill-rule="evenodd"><g fill="#000000"><path d="M49.001,0 L10.999,0 C4.934,0 0,4.934 0,10.999 L0,49.001 C0,55.066 4.934,60 10.999,60 L49.001,60 C55.065,60 60,55.066 60,49.001 L60,10.999 C60,4.934 55.065,0 49.001,0"></path></g></g></g><defs><filter id="8ePiQdFgpJewSdM5dFvl6"><feColorMatrix type="matrix" values="0 0 0 0 0.875  0 0 0 0 0.3984375  0 0 0 0 0.3984375  0 0 0 1 0"></feColorMatrix></filter></defs></svg></g> <g><svg xmlns="http://www.w3.org/2000/svg" xmlns:xlink="http://www.w3.org/1999/xlink" viewBox="0 0 53.96869565217391 64.80000000000001" width="50" height="50" x="5" y="5" class="image-svg-letter"><path transform="translate(-6.010434782608696 64.80000000000001)" d="M52.78-36L52.78-64.80L59.98-64.80L59.98 0L52.78 0L52.78-28.80L18.91-28.80L14.71-36L52.78-36ZM6.01 0L6.01-64.80L13.21-64.80L13.21 0L6.01 0Z"></path></svg></g></g><mask id="e4899dfd-673c-4ab5-bf1e-9cba1e0ff2d6"><g fill="white"><svg xmlns="http://www.w3.org/2000/svg" xmlns:xlink="http://www.w3.org/1999/xlink" xmlns:sketch="http://www.bohemiancoding.com/sketch/ns" viewBox="0 0 60 60" version="1.1" x="0" y="0" style="overflow: visible;" width="60" height="60" filtersec="colorsf5816786002"><g transform="scale(1, 1) skewX(0)"><title>96 - Rounded (Solid)</title><desc>Created with Sketch.</desc><g fill-rule="evenodd"><g><path d="M49.001,0 L10.999,0 C4.934,0 0,4.934 0,10.999 L0,49.001 C0,55.066 4.934,60 10.999,60 L49.001,60 C55.065,60 60,55.066 60,49.001 L60,10.999 C60,4.934 55.065,0 49.001,0"></path></g></g></g><defs></defs></svg></g> <g fill="black"><svg xmlns="http://www.w3.org/2000/svg" xmlns:xlink="http://www.w3.org/1999/xlink" viewBox="0 0 53.96869565217391 64.80000000000001" width="50" height="50" x="5" y="5" class="image-svg-letter"><path transform="translate(-6.010434782608696 64.80000000000001)" d="M52.78-36L52.78-64.80L59.98-64.80L59.98 0L52.78 0L52.78-28.80L18.91-28.80L14.71-36L52.78-36ZM6.01 0L6.01-64.80L13.21-64.80L13.21 0L6.01 0Z"></path></svg></g></mask></svg> <defs><filter id="colors6450583076"><feColorMatrix type="matrix" values="0 0 0 0 0.875  0 0 0 0 0.3984375  0 0 0 0 0.3984375  0 0 0 1 0" class="icon-fecolormatrix"></feColorMatrix></filter> <filter id="colorsf5816786002"><feColorMatrix type="matrix" values="0 0 0 0 0.99609375  0 0 0 0 0.99609375  0 0 0 0 0.99609375  0 0 0 1 0" class="icon-fecolormatrix"></feColorMatrix></filter> <filter id="colorsb983405303"><feColorMatrix type="matrix" values="0 0 0 0 0  0 0 0 0 0  0 0 0 0 0  0 0 0 1 0" class="icon-fecolormatrix"></feColorMatrix></filter></defs></g></mask></svg>